<svg version="1.1" xmlns="http://www.w3.org/2000/svg" xmlns:xlink="http://www.w3.org/1999/xlink" width="15.56129" height="41.13548" viewBox="0,0,15.56129,41.13548"><g transform="translate(-245.36774,-159.42452)"><g data-paper-data="{&quot;isPaintingLayer&quot;:true}" fill="#000000" fill-rule="nonzero" stroke="none" stroke-width="0.5" stroke-linecap="butt" stroke-linejoin="miter" stroke-miterlimit="10" stroke-dasharray="" stroke-dashoffset="0" style="mix-blend-mode: normal"><path d="M245.58065,161.11161c0,-0.93176 0.75534,-1.6871 1.6871,-1.6871c0.93176,0 1.6871,0.75534 1.6871,1.6871c0,0.93176 -0.75534,1.6871 -1.6871,1.6871c-0.93176,0 -1.6871,-0.75534 -1.6871,-1.6871z"/><path d="M257.54839,166.80839c0,-0.93176 0.75534,-1.6871 1.68709,-1.6871c0.93176,0 1.6871,0.75534 1.6871,1.6871c0,0.93176 -0.75534,1.68709 -1.6871,1.68709c-0.93176,0 -1.68709,-0.75534 -1.68709,-1.68709z"/><path d="M257.55484,193.06c0,-0.93176 0.75534,-1.6871 1.68709,-1.6871c0.93176,0 1.6871,0.75535 1.6871,1.6871c0,0.93176 -0.75534,1.68709 -1.6871,1.68709c-0.93176,0 -1.68709,-0.75534 -1.68709,-1.68709z"/><path d="M245.36774,198.87291c0,-0.93176 0.75534,-1.6871 1.68709,-1.6871c0.93176,0 1.6871,0.75535 1.6871,1.6871c0,0.93176 -0.75534,1.68709 -1.6871,1.68709c-0.93176,0 -1.68709,-0.75534 -1.68709,-1.68709z"/></g></g></svg>